#!OML:ASF E:\Steps\Project 1\Capture day 1\Session 2\Subject.ASF
:FULLY-SPECIFIED
:DEGREES
100
root 9.05309 16.2167 31.6866 -159.654 -2.77414 180.054
lowerback -25.7935 -1.48754 -4.36515
upperback -0.937227 -1.07861 -0.09665
thorax 13.4922 -0.942933 1.96644
lowerneck -4.43426 -1.47522 -0.117388
upperneck 11.545 -2.40321 0.699205
head 4.62645 -1.29166 0.116754
rclavicle -1.98785e-015 -9.14409e-015
rhumerus -33.2016 -19.4921 -78.4206
rradius 25.3482
rwrist 4.38522
rhand -6.8135 -47.3824
rfingers 7.12502
rthumb 19.0502 -76.4695
lclavicle -1.98785e-015 -9.14409e-015
lhumerus -28.6821 5.74815 81.4552
lradius 18.6645
lwrist -7.94648
lhand -18.8546 -10.3473
lfingers 7.12502
lthumb 7.44552 19.5017
rfemur -21.2505 8.68938 21.325
rtibia 11.6961
rfoot -20.7544 -9.99207
rtoes -24.1417
lfemur -23.6056 -9.69226 -18.6039
ltibia 13.3616
lfoot -9.19351 1.71755
ltoes -39.3865
101
root 9.05083 16.2169 31.6893 -159.91 -2.94826 180.363
lowerback -25.5484 -1.44948 -4.00384
upperback -0.865965 -1.13875 -0.00166337
thorax 13.4411 -0.943048 1.8496
lowerneck -4.49777 -1.47592 -0.0967708
upperneck 11.5662 -2.39921 0.650335
head 4.64608 -1.29036 0.0960243
rclavicle 4.17448e-015 -1.70955e-014
rhumerus -32.9825 -19.0958 -78.7104
rradius 25.7728
rwrist 4.04206
rhand -6.70897 -50.4194
rfingers 7.12502
rthumb 19.1507 -79.4966
lclavicle 4.17448e-015 -1.70955e-014
lhumerus -28.5861 5.13469 81.8484
lradius 19.3966
lwrist -7.61459
lhand -20.3704 -9.95147
lfingers 7.12502
lthumb 5.98227 19.9441
rfemur -20.9165 8.6617 21.738
rtibia 11.6079
rfoot -20.7351 -9.92495
rtoes -23.1695
lfemur -23.3492 -9.73247 -18.2685
ltibia 13.3476
lfoot -9.20197 1.74155
ltoes -39.8808
102
root 9.05397 16.2158 31.6959 -159.949 -3.03273 180.447
lowerback -25.4608 -1.46728 -3.96296
upperback -0.862551 -1.17985 0.0378444
thorax 13.3996 -0.95865 1.85784
lowerneck -4.5206 -1.47221 -0.0307625
upperneck 11.5757 -2.39305 0.592062
head 4.65232 -1.28713 0.0646255
rclavicle 1.04362e-015 8.74653e-015
rhumerus -32.7989 -18.47 -79.1366
rradius 26.3025
rwrist 3.47861
rhand -6.54172 -52.1103
rfingers 7.12502
rthumb 19.3115 -81.1714
lclavicle 1.04362e-015 8.74653e-015
lhumerus -28.5134 4.18742 82.3527
lradius 20.1743
lwrist -6.78648
lhand -19.9625 -10.8472
lfingers 7.12502
lthumb 6.37602 19.0368
rfemur -20.8767 8.9229 21.816
rtibia 11.5808
rfoot -20.7354 -10.0961
rtoes -22.7133
lfemur -23.3966 -9.7574 -18.1112
ltibia 13.4398
lfoot -9.26509 1.65139
ltoes -38.8125
103
root 9.05865 16.2153 31.7005 -159.878 -2.97864 180.405
lowerback -25.5182 -1.49244 -4.10173
upperback -0.894845 -1.17993 0.0648953
thorax 13.3966 -0.970656 1.96776
lowerneck -4.51875 -1.46103 -0.00529336
upperneck 11.5996 -2.37517 0.531597
head 4.6593 -1.28089 0.0404269
rclavicle 1.14798e-014 7.95139e-015
rhumerus -32.6164 -17.7304 -79.532
rradius 26.7974
rwrist 2.85355
rhand -6.61088 -52.3203
rfingers 7.12502
rthumb 19.245 -81.388
lclavicle 1.14798e-014 7.95139e-015
lhumerus -28.4056 3.567 82.7394
lradius 20.8473
lwrist -6.11892
lhand -18.9551 -10.897
lfingers 7.12502
lthumb 7.34848 18.9554
rfemur -21.0236 9.19811 21.704
rtibia 11.6386
rfoot -20.7892 -10.2666
rtoes -22.7308
lfemur -23.5337 -9.79356 -18.074
ltibia 13.4986
lfoot -9.29504 1.68871
ltoes -37.9953
104
root 9.05859 16.2158 31.6979 -159.88 -2.79362 180.299
lowerback -25.6026 -1.46404 -4.22963
upperback -0.887995 -1.09888 0.0306287
thorax 13.4472 -0.94273 2.03033
lowerneck -4.55851 -1.46455 0.0430565
upperneck 11.6365 -2.37873 0.471899
head 4.67939 -1.28368 0.0107162
rclavicle -7.95139e-016 2.38542e-014
rhumerus -32.4566 -17.2829 -79.8045
rradius 27.2155
rwrist 2.5268
rhand -6.47489 -52.5944
rfingers 7.12502
rthumb 19.3758 -81.6491
lclavicle -7.95139e-016 2.38542e-014
lhumerus -28.1854 3.36424 82.932
lradius 21.2536
lwrist -5.97844
lhand -19.0554 -10.9953
lfingers 7.12502
lthumb 7.25169 18.8604
rfemur -21.0544 9.36009 21.4989
rtibia 11.6606
rfoot -20.8834 -10.2013
rtoes -22.3563
lfemur -23.4802 -9.7794 -18.2207
ltibia 13.4094
lfoot -9.28545 1.94363
ltoes -38.3878
105
root 9.05764 16.2193 31.6972 -159.945 -2.58073 180.13
lowerback -25.5925 -1.43162 -4.39617
upperback -0.885072 -0.999723 -0.042077
thorax 13.4392 -0.906179 2.07908
lowerneck -4.54316 -1.46729 0.09803
upperneck 11.6573 -2.38314 0.415264
head 4.68229 -1.28718 -0.0185149
rclavicle 5.86415e-015 1.59028e-014
rhumerus -32.392 -16.9739 -80.0406
rradius 27.6904
rwrist 2.24452
rhand -6.32681 -52.8716
rfingers 7.12502
rthumb 19.5182 -81.9119
lclavicle 5.86415e-015 1.59028e-014
lhumerus -28.0263 3.02775 83.1479
lradius 21.6897
lwrist -5.77552
lhand -19.3681 -11.5498
lfingers 7.12502
lthumb 6.94984 18.3161
rfemur -20.9392 9.55187 21.2692
rtibia 11.5754
rfoot -20.9127 -10.2582
rtoes -22.5479
lfemur -23.3273 -9.65753 -18.4982
ltibia 13.3469
lfoot -9.28099 2.10502
ltoes -38.9388
106
root 9.05573 16.2241 31.7046 -159.859 -2.52006 179.838
lowerback -25.6123 -1.49477 -4.69187
upperback -0.960801 -1.00208 -0.102898
thorax 13.3645 -0.926693 2.17808
lowerneck -4.47508 -1.454 0.105056
upperneck 11.6643 -2.36287 0.361843
head 4.66997 -1.2812 -0.0361311
rclavicle -8.19987e-015 1.98785e-015
rhumerus -32.3074 -16.478 -80.3054
rradius 28.1624
rwrist 1.73265
rhand -6.68193 -52.9425
rfingers 7.12502
rthumb 19.1767 -82.0171
lclavicle -8.19987e-015 1.98785e-015
lhumerus -28.0829 2.38271 83.5074
lradius 22.4608
lwrist -5.14971
lhand -19.0739 -11.0165
lfingers 7.12502
lthumb 7.23383 18.8398
rfemur -21.0306 9.58385 20.8858
rtibia 11.5764
rfoot -20.8706 -10.4674
rtoes -22.8743
lfemur -23.3724 -9.85431 -18.8408
ltibia 13.3138
lfoot -9.29252 2.26868
ltoes -38.7521
